<mxfile host="app.diagrams.net" modified="2024-03-07T07:04:17.288Z" agent="Mozilla/5.0 (Windows NT 10.0; Win64; x64) AppleWebKit/537.36 (KHTML, like Gecko) Chrome/122.0.0.0 Safari/537.36" etag="gAxfTD3W8SUX6csZgDWq" version="24.0.2" type="github">
  <diagram id="R2lEEEUBdFMjLlhIrx00" name="Page-1">
    <mxGraphModel dx="1436" dy="853" grid="1" gridSize="10" guides="1" tooltips="1" connect="1" arrows="1" fold="1" page="1" pageScale="1" pageWidth="850" pageHeight="1100" math="0" shadow="0" extFonts="Permanent Marker^https://fonts.googleapis.com/css?family=Permanent+Marker">
      <root>
        <mxCell id="0" />
        <mxCell id="1" parent="0" />
        <mxCell id="RdNPgLvdJwb93vjGnL0X-3" value="&lt;font style=&quot;font-size: 18px;&quot;&gt;俱乐部&lt;/font&gt;" style="rounded=1;whiteSpace=wrap;html=1;" vertex="1" parent="1">
          <mxGeometry x="340" y="20" width="120" height="60" as="geometry" />
        </mxCell>
        <mxCell id="RdNPgLvdJwb93vjGnL0X-4" value="&lt;font style=&quot;font-size: 18px;&quot;&gt;学员&lt;/font&gt;" style="rounded=1;whiteSpace=wrap;html=1;" vertex="1" parent="1">
          <mxGeometry x="540" y="220" width="120" height="60" as="geometry" />
        </mxCell>
        <mxCell id="RdNPgLvdJwb93vjGnL0X-5" value="&lt;font style=&quot;font-size: 18px;&quot;&gt;教练&lt;/font&gt;" style="rounded=1;whiteSpace=wrap;html=1;" vertex="1" parent="1">
          <mxGeometry x="140" y="220" width="120" height="60" as="geometry" />
        </mxCell>
        <mxCell id="RdNPgLvdJwb93vjGnL0X-7" value="有" style="rhombus;whiteSpace=wrap;html=1;" vertex="1" parent="1">
          <mxGeometry x="460" y="120" width="100" height="60" as="geometry" />
        </mxCell>
        <mxCell id="RdNPgLvdJwb93vjGnL0X-13" value="有" style="rhombus;whiteSpace=wrap;html=1;" vertex="1" parent="1">
          <mxGeometry x="240" y="120" width="100" height="60" as="geometry" />
        </mxCell>
        <mxCell id="RdNPgLvdJwb93vjGnL0X-14" value="" style="endArrow=none;html=1;rounded=0;exitX=1;exitY=0;exitDx=0;exitDy=0;entryX=0.25;entryY=1;entryDx=0;entryDy=0;" edge="1" parent="1" source="RdNPgLvdJwb93vjGnL0X-13" target="RdNPgLvdJwb93vjGnL0X-3">
          <mxGeometry width="50" height="50" relative="1" as="geometry">
            <mxPoint x="330" y="130" as="sourcePoint" />
            <mxPoint x="390" y="110" as="targetPoint" />
          </mxGeometry>
        </mxCell>
        <mxCell id="RdNPgLvdJwb93vjGnL0X-15" value="" style="endArrow=none;html=1;rounded=0;entryX=0;entryY=1;entryDx=0;entryDy=0;exitX=0.5;exitY=0;exitDx=0;exitDy=0;" edge="1" parent="1" source="RdNPgLvdJwb93vjGnL0X-5" target="RdNPgLvdJwb93vjGnL0X-13">
          <mxGeometry width="50" height="50" relative="1" as="geometry">
            <mxPoint x="280" y="240" as="sourcePoint" />
            <mxPoint x="330" y="190" as="targetPoint" />
          </mxGeometry>
        </mxCell>
        <mxCell id="RdNPgLvdJwb93vjGnL0X-16" value="" style="endArrow=none;html=1;rounded=0;entryX=0.75;entryY=1;entryDx=0;entryDy=0;exitX=0;exitY=0;exitDx=0;exitDy=0;" edge="1" parent="1" source="RdNPgLvdJwb93vjGnL0X-7" target="RdNPgLvdJwb93vjGnL0X-3">
          <mxGeometry width="50" height="50" relative="1" as="geometry">
            <mxPoint x="495.28" y="150" as="sourcePoint" />
            <mxPoint x="450" y="101.9799999999999" as="targetPoint" />
          </mxGeometry>
        </mxCell>
        <mxCell id="RdNPgLvdJwb93vjGnL0X-17" value="" style="endArrow=none;html=1;rounded=0;entryX=1;entryY=1;entryDx=0;entryDy=0;exitX=0.5;exitY=0;exitDx=0;exitDy=0;" edge="1" parent="1" source="RdNPgLvdJwb93vjGnL0X-4" target="RdNPgLvdJwb93vjGnL0X-7">
          <mxGeometry width="50" height="50" relative="1" as="geometry">
            <mxPoint x="510" y="220" as="sourcePoint" />
            <mxPoint x="470" y="180" as="targetPoint" />
          </mxGeometry>
        </mxCell>
        <mxCell id="RdNPgLvdJwb93vjGnL0X-21" value="1" style="text;html=1;align=center;verticalAlign=middle;resizable=0;points=[];autosize=1;strokeColor=none;fillColor=none;" vertex="1" parent="1">
          <mxGeometry x="315" y="88" width="30" height="30" as="geometry" />
        </mxCell>
        <mxCell id="RdNPgLvdJwb93vjGnL0X-22" value="n" style="text;html=1;align=center;verticalAlign=middle;resizable=0;points=[];autosize=1;strokeColor=none;fillColor=none;" vertex="1" parent="1">
          <mxGeometry x="230" y="190" width="30" height="30" as="geometry" />
        </mxCell>
        <mxCell id="RdNPgLvdJwb93vjGnL0X-23" value="n" style="text;html=1;align=center;verticalAlign=middle;resizable=0;points=[];autosize=1;strokeColor=none;fillColor=none;" vertex="1" parent="1">
          <mxGeometry x="540" y="190" width="30" height="30" as="geometry" />
        </mxCell>
        <mxCell id="RdNPgLvdJwb93vjGnL0X-25" value="1" style="text;html=1;align=center;verticalAlign=middle;resizable=0;points=[];autosize=1;strokeColor=none;fillColor=none;" vertex="1" parent="1">
          <mxGeometry x="460" y="90" width="30" height="30" as="geometry" />
        </mxCell>
        <mxCell id="RdNPgLvdJwb93vjGnL0X-28" value="&lt;b&gt;Fig 1: E-R&lt;/b&gt;" style="text;html=1;align=center;verticalAlign=middle;whiteSpace=wrap;rounded=0;" vertex="1" parent="1">
          <mxGeometry x="370" y="490" width="60" height="30" as="geometry" />
        </mxCell>
        <mxCell id="RdNPgLvdJwb93vjGnL0X-40" style="edgeStyle=orthogonalEdgeStyle;rounded=0;orthogonalLoop=1;jettySize=auto;html=1;exitX=0.5;exitY=1;exitDx=0;exitDy=0;" edge="1" parent="1" source="RdNPgLvdJwb93vjGnL0X-30" target="RdNPgLvdJwb93vjGnL0X-36">
          <mxGeometry relative="1" as="geometry" />
        </mxCell>
        <mxCell id="RdNPgLvdJwb93vjGnL0X-30" value="名称" style="rounded=0;whiteSpace=wrap;html=1;" vertex="1" parent="1">
          <mxGeometry x="341" y="570" width="60" height="40" as="geometry" />
        </mxCell>
        <mxCell id="RdNPgLvdJwb93vjGnL0X-39" style="edgeStyle=orthogonalEdgeStyle;rounded=0;orthogonalLoop=1;jettySize=auto;html=1;exitX=0.5;exitY=1;exitDx=0;exitDy=0;" edge="1" parent="1" source="RdNPgLvdJwb93vjGnL0X-30" target="RdNPgLvdJwb93vjGnL0X-33">
          <mxGeometry relative="1" as="geometry" />
        </mxCell>
        <mxCell id="RdNPgLvdJwb93vjGnL0X-31" value="位置" style="rounded=0;whiteSpace=wrap;html=1;" vertex="1" parent="1">
          <mxGeometry x="401" y="570" width="60" height="40" as="geometry" />
        </mxCell>
        <mxCell id="RdNPgLvdJwb93vjGnL0X-32" value="营业时间" style="rounded=0;whiteSpace=wrap;html=1;" vertex="1" parent="1">
          <mxGeometry x="461" y="570" width="60" height="40" as="geometry" />
        </mxCell>
        <mxCell id="RdNPgLvdJwb93vjGnL0X-98" style="edgeStyle=orthogonalEdgeStyle;rounded=0;orthogonalLoop=1;jettySize=auto;html=1;exitX=0.5;exitY=1;exitDx=0;exitDy=0;entryX=0.5;entryY=0;entryDx=0;entryDy=0;" edge="1" parent="1" source="RdNPgLvdJwb93vjGnL0X-33" target="RdNPgLvdJwb93vjGnL0X-45">
          <mxGeometry relative="1" as="geometry" />
        </mxCell>
        <mxCell id="RdNPgLvdJwb93vjGnL0X-33" value="ID" style="rounded=0;whiteSpace=wrap;html=1;" vertex="1" parent="1">
          <mxGeometry x="221" y="650" width="60" height="40" as="geometry" />
        </mxCell>
        <mxCell id="RdNPgLvdJwb93vjGnL0X-34" value="名字" style="rounded=0;whiteSpace=wrap;html=1;" vertex="1" parent="1">
          <mxGeometry x="281" y="650" width="60" height="40" as="geometry" />
        </mxCell>
        <mxCell id="RdNPgLvdJwb93vjGnL0X-118" style="edgeStyle=orthogonalEdgeStyle;rounded=0;orthogonalLoop=1;jettySize=auto;html=1;exitX=0.5;exitY=1;exitDx=0;exitDy=0;entryX=0.5;entryY=0;entryDx=0;entryDy=0;" edge="1" parent="1" source="RdNPgLvdJwb93vjGnL0X-36" target="RdNPgLvdJwb93vjGnL0X-49">
          <mxGeometry relative="1" as="geometry" />
        </mxCell>
        <mxCell id="RdNPgLvdJwb93vjGnL0X-36" value="ID" style="rounded=0;whiteSpace=wrap;html=1;" vertex="1" parent="1">
          <mxGeometry x="461" y="650" width="60" height="40" as="geometry" />
        </mxCell>
        <mxCell id="RdNPgLvdJwb93vjGnL0X-37" value="名字" style="rounded=0;whiteSpace=wrap;html=1;" vertex="1" parent="1">
          <mxGeometry x="521" y="650" width="60" height="40" as="geometry" />
        </mxCell>
        <mxCell id="RdNPgLvdJwb93vjGnL0X-38" value="学龄" style="rounded=0;whiteSpace=wrap;html=1;" vertex="1" parent="1">
          <mxGeometry x="581" y="650" width="60" height="40" as="geometry" />
        </mxCell>
        <mxCell id="RdNPgLvdJwb93vjGnL0X-41" value="俱乐部" style="text;html=1;align=center;verticalAlign=middle;resizable=0;points=[];autosize=1;strokeColor=none;fillColor=none;" vertex="1" parent="1">
          <mxGeometry x="281" y="575" width="60" height="30" as="geometry" />
        </mxCell>
        <mxCell id="RdNPgLvdJwb93vjGnL0X-42" value="教练" style="text;html=1;align=center;verticalAlign=middle;resizable=0;points=[];autosize=1;strokeColor=none;fillColor=none;" vertex="1" parent="1">
          <mxGeometry x="171" y="655" width="50" height="30" as="geometry" />
        </mxCell>
        <mxCell id="RdNPgLvdJwb93vjGnL0X-43" value="学员" style="text;html=1;align=center;verticalAlign=middle;resizable=0;points=[];autosize=1;strokeColor=none;fillColor=none;" vertex="1" parent="1">
          <mxGeometry x="411" y="655" width="50" height="30" as="geometry" />
        </mxCell>
        <mxCell id="RdNPgLvdJwb93vjGnL0X-44" value="&lt;b&gt;Fig 2: 层次模型&lt;/b&gt;" style="text;html=1;align=center;verticalAlign=middle;whiteSpace=wrap;rounded=0;" vertex="1" parent="1">
          <mxGeometry x="355" y="860" width="90" height="30" as="geometry" />
        </mxCell>
        <mxCell id="RdNPgLvdJwb93vjGnL0X-45" value="ID" style="rounded=0;whiteSpace=wrap;html=1;" vertex="1" parent="1">
          <mxGeometry x="221" y="710" width="60" height="40" as="geometry" />
        </mxCell>
        <mxCell id="RdNPgLvdJwb93vjGnL0X-46" value="课程名称" style="rounded=0;whiteSpace=wrap;html=1;" vertex="1" parent="1">
          <mxGeometry x="281" y="710" width="60" height="40" as="geometry" />
        </mxCell>
        <mxCell id="RdNPgLvdJwb93vjGnL0X-48" value="课程" style="text;html=1;align=center;verticalAlign=middle;resizable=0;points=[];autosize=1;strokeColor=none;fillColor=none;" vertex="1" parent="1">
          <mxGeometry x="171" y="715" width="50" height="30" as="geometry" />
        </mxCell>
        <mxCell id="RdNPgLvdJwb93vjGnL0X-49" value="ID" style="rounded=0;whiteSpace=wrap;html=1;" vertex="1" parent="1">
          <mxGeometry x="461" y="710" width="60" height="40" as="geometry" />
        </mxCell>
        <mxCell id="RdNPgLvdJwb93vjGnL0X-50" value="课程名称" style="rounded=0;whiteSpace=wrap;html=1;" vertex="1" parent="1">
          <mxGeometry x="521" y="710" width="60" height="40" as="geometry" />
        </mxCell>
        <mxCell id="RdNPgLvdJwb93vjGnL0X-52" value="课程" style="text;html=1;align=center;verticalAlign=middle;resizable=0;points=[];autosize=1;strokeColor=none;fillColor=none;" vertex="1" parent="1">
          <mxGeometry x="411" y="715" width="50" height="30" as="geometry" />
        </mxCell>
        <mxCell id="RdNPgLvdJwb93vjGnL0X-53" value="ID" style="rounded=0;whiteSpace=wrap;html=1;" vertex="1" parent="1">
          <mxGeometry x="323.5" y="820" width="60" height="40" as="geometry" />
        </mxCell>
        <mxCell id="RdNPgLvdJwb93vjGnL0X-54" value="名字" style="rounded=0;whiteSpace=wrap;html=1;" vertex="1" parent="1">
          <mxGeometry x="383.5" y="820" width="60" height="40" as="geometry" />
        </mxCell>
        <mxCell id="RdNPgLvdJwb93vjGnL0X-55" value="学龄" style="rounded=0;whiteSpace=wrap;html=1;" vertex="1" parent="1">
          <mxGeometry x="443.5" y="820" width="60" height="40" as="geometry" />
        </mxCell>
        <mxCell id="RdNPgLvdJwb93vjGnL0X-56" value="学员" style="text;html=1;align=center;verticalAlign=middle;resizable=0;points=[];autosize=1;strokeColor=none;fillColor=none;" vertex="1" parent="1">
          <mxGeometry x="273.5" y="825" width="50" height="30" as="geometry" />
        </mxCell>
        <mxCell id="RdNPgLvdJwb93vjGnL0X-63" style="edgeStyle=orthogonalEdgeStyle;rounded=0;orthogonalLoop=1;jettySize=auto;html=1;exitX=0.5;exitY=1;exitDx=0;exitDy=0;" edge="1" parent="1" source="RdNPgLvdJwb93vjGnL0X-64" target="RdNPgLvdJwb93vjGnL0X-71">
          <mxGeometry relative="1" as="geometry" />
        </mxCell>
        <mxCell id="RdNPgLvdJwb93vjGnL0X-64" value="北邮乒协" style="rounded=0;whiteSpace=wrap;html=1;" vertex="1" parent="1">
          <mxGeometry x="311.5" y="910" width="60" height="40" as="geometry" />
        </mxCell>
        <mxCell id="RdNPgLvdJwb93vjGnL0X-65" style="edgeStyle=orthogonalEdgeStyle;rounded=0;orthogonalLoop=1;jettySize=auto;html=1;exitX=0.5;exitY=1;exitDx=0;exitDy=0;" edge="1" parent="1" source="RdNPgLvdJwb93vjGnL0X-64" target="RdNPgLvdJwb93vjGnL0X-68">
          <mxGeometry relative="1" as="geometry" />
        </mxCell>
        <mxCell id="RdNPgLvdJwb93vjGnL0X-66" value="北京邮电大学" style="rounded=0;whiteSpace=wrap;html=1;" vertex="1" parent="1">
          <mxGeometry x="371.5" y="910" width="82" height="40" as="geometry" />
        </mxCell>
        <mxCell id="RdNPgLvdJwb93vjGnL0X-67" value="全天" style="rounded=0;whiteSpace=wrap;html=1;" vertex="1" parent="1">
          <mxGeometry x="453.5" y="910" width="60" height="40" as="geometry" />
        </mxCell>
        <mxCell id="RdNPgLvdJwb93vjGnL0X-201" style="edgeStyle=orthogonalEdgeStyle;rounded=0;orthogonalLoop=1;jettySize=auto;html=1;exitX=0;exitY=0.5;exitDx=0;exitDy=0;" edge="1" parent="1" source="RdNPgLvdJwb93vjGnL0X-68" target="RdNPgLvdJwb93vjGnL0X-198">
          <mxGeometry relative="1" as="geometry" />
        </mxCell>
        <mxCell id="RdNPgLvdJwb93vjGnL0X-68" value="1" style="rounded=0;whiteSpace=wrap;html=1;" vertex="1" parent="1">
          <mxGeometry x="191.5" y="1000" width="60" height="40" as="geometry" />
        </mxCell>
        <mxCell id="RdNPgLvdJwb93vjGnL0X-69" value="Lord Dark" style="rounded=0;whiteSpace=wrap;html=1;" vertex="1" parent="1">
          <mxGeometry x="251.5" y="1000" width="60" height="40" as="geometry" />
        </mxCell>
        <mxCell id="RdNPgLvdJwb93vjGnL0X-70" value="66" style="rounded=0;whiteSpace=wrap;html=1;" vertex="1" parent="1">
          <mxGeometry x="311.5" y="1000" width="60" height="40" as="geometry" />
        </mxCell>
        <mxCell id="RdNPgLvdJwb93vjGnL0X-71" value="1" style="rounded=0;whiteSpace=wrap;html=1;" vertex="1" parent="1">
          <mxGeometry x="431.5" y="1000" width="60" height="40" as="geometry" />
        </mxCell>
        <mxCell id="RdNPgLvdJwb93vjGnL0X-72" value="苏俊杰" style="rounded=0;whiteSpace=wrap;html=1;" vertex="1" parent="1">
          <mxGeometry x="491.5" y="1000" width="60" height="40" as="geometry" />
        </mxCell>
        <mxCell id="RdNPgLvdJwb93vjGnL0X-73" value="1" style="rounded=0;whiteSpace=wrap;html=1;" vertex="1" parent="1">
          <mxGeometry x="551.5" y="1000" width="60" height="40" as="geometry" />
        </mxCell>
        <mxCell id="RdNPgLvdJwb93vjGnL0X-74" value="俱乐部" style="text;html=1;align=center;verticalAlign=middle;resizable=0;points=[];autosize=1;strokeColor=none;fillColor=none;" vertex="1" parent="1">
          <mxGeometry x="251.5" y="915" width="60" height="30" as="geometry" />
        </mxCell>
        <mxCell id="RdNPgLvdJwb93vjGnL0X-75" value="教练" style="text;html=1;align=center;verticalAlign=middle;resizable=0;points=[];autosize=1;strokeColor=none;fillColor=none;" vertex="1" parent="1">
          <mxGeometry x="141.5" y="1005" width="50" height="30" as="geometry" />
        </mxCell>
        <mxCell id="RdNPgLvdJwb93vjGnL0X-76" value="学员" style="text;html=1;align=center;verticalAlign=middle;resizable=0;points=[];autosize=1;strokeColor=none;fillColor=none;" vertex="1" parent="1">
          <mxGeometry x="381.5" y="1005" width="50" height="30" as="geometry" />
        </mxCell>
        <mxCell id="RdNPgLvdJwb93vjGnL0X-77" value="2" style="rounded=0;whiteSpace=wrap;html=1;" vertex="1" parent="1">
          <mxGeometry x="443.5" y="1040" width="60" height="40" as="geometry" />
        </mxCell>
        <mxCell id="RdNPgLvdJwb93vjGnL0X-78" value="冯梓哲" style="rounded=0;whiteSpace=wrap;html=1;" vertex="1" parent="1">
          <mxGeometry x="503.5" y="1040" width="60" height="40" as="geometry" />
        </mxCell>
        <mxCell id="RdNPgLvdJwb93vjGnL0X-117" style="edgeStyle=orthogonalEdgeStyle;rounded=0;orthogonalLoop=1;jettySize=auto;html=1;exitX=1;exitY=0.5;exitDx=0;exitDy=0;" edge="1" parent="1" source="RdNPgLvdJwb93vjGnL0X-79" target="RdNPgLvdJwb93vjGnL0X-109">
          <mxGeometry relative="1" as="geometry" />
        </mxCell>
        <mxCell id="RdNPgLvdJwb93vjGnL0X-79" value="2" style="rounded=0;whiteSpace=wrap;html=1;" vertex="1" parent="1">
          <mxGeometry x="563.5" y="1040" width="60" height="40" as="geometry" />
        </mxCell>
        <mxCell id="RdNPgLvdJwb93vjGnL0X-80" value="2" style="rounded=0;whiteSpace=wrap;html=1;" vertex="1" parent="1">
          <mxGeometry x="203.5" y="1040" width="60" height="40" as="geometry" />
        </mxCell>
        <mxCell id="RdNPgLvdJwb93vjGnL0X-81" value="乔指导" style="rounded=0;whiteSpace=wrap;html=1;" vertex="1" parent="1">
          <mxGeometry x="263.5" y="1040" width="60" height="40" as="geometry" />
        </mxCell>
        <mxCell id="RdNPgLvdJwb93vjGnL0X-105" style="edgeStyle=orthogonalEdgeStyle;rounded=0;orthogonalLoop=1;jettySize=auto;html=1;exitX=1;exitY=0.5;exitDx=0;exitDy=0;entryX=0.5;entryY=0;entryDx=0;entryDy=0;" edge="1" parent="1" source="RdNPgLvdJwb93vjGnL0X-82" target="RdNPgLvdJwb93vjGnL0X-101">
          <mxGeometry relative="1" as="geometry">
            <mxPoint x="373.5" y="1120" as="targetPoint" />
          </mxGeometry>
        </mxCell>
        <mxCell id="RdNPgLvdJwb93vjGnL0X-82" value="10" style="rounded=0;whiteSpace=wrap;html=1;" vertex="1" parent="1">
          <mxGeometry x="323.5" y="1040" width="60" height="40" as="geometry" />
        </mxCell>
        <mxCell id="RdNPgLvdJwb93vjGnL0X-83" value="&lt;b&gt;Fig 3: 层次模型实例&lt;/b&gt;" style="text;html=1;align=center;verticalAlign=middle;whiteSpace=wrap;rounded=0;" vertex="1" parent="1">
          <mxGeometry x="341" y="1220" width="110" height="30" as="geometry" />
        </mxCell>
        <mxCell id="RdNPgLvdJwb93vjGnL0X-87" value="&lt;font style=&quot;font-size: 18px;&quot;&gt;课程&lt;/font&gt;" style="rounded=1;whiteSpace=wrap;html=1;" vertex="1" parent="1">
          <mxGeometry x="340" y="420" width="120" height="60" as="geometry" />
        </mxCell>
        <mxCell id="RdNPgLvdJwb93vjGnL0X-88" value="指导" style="rhombus;whiteSpace=wrap;html=1;" vertex="1" parent="1">
          <mxGeometry x="230" y="320" width="100" height="60" as="geometry" />
        </mxCell>
        <mxCell id="RdNPgLvdJwb93vjGnL0X-89" value="" style="endArrow=none;html=1;rounded=0;entryX=0.75;entryY=1;entryDx=0;entryDy=0;exitX=0;exitY=0;exitDx=0;exitDy=0;" edge="1" parent="1" source="RdNPgLvdJwb93vjGnL0X-88">
          <mxGeometry width="50" height="50" relative="1" as="geometry">
            <mxPoint x="265.28" y="350" as="sourcePoint" />
            <mxPoint x="200" y="280" as="targetPoint" />
          </mxGeometry>
        </mxCell>
        <mxCell id="RdNPgLvdJwb93vjGnL0X-90" value="" style="endArrow=none;html=1;rounded=0;entryX=1;entryY=1;entryDx=0;entryDy=0;exitX=0.5;exitY=0;exitDx=0;exitDy=0;" edge="1" parent="1" target="RdNPgLvdJwb93vjGnL0X-88">
          <mxGeometry width="50" height="50" relative="1" as="geometry">
            <mxPoint x="370" y="420" as="sourcePoint" />
            <mxPoint x="240" y="380" as="targetPoint" />
          </mxGeometry>
        </mxCell>
        <mxCell id="RdNPgLvdJwb93vjGnL0X-91" value="1" style="text;html=1;align=center;verticalAlign=middle;resizable=0;points=[];autosize=1;strokeColor=none;fillColor=none;" vertex="1" parent="1">
          <mxGeometry x="310" y="390" width="30" height="30" as="geometry" />
        </mxCell>
        <mxCell id="RdNPgLvdJwb93vjGnL0X-92" value="1" style="text;html=1;align=center;verticalAlign=middle;resizable=0;points=[];autosize=1;strokeColor=none;fillColor=none;" vertex="1" parent="1">
          <mxGeometry x="230" y="290" width="30" height="30" as="geometry" />
        </mxCell>
        <mxCell id="RdNPgLvdJwb93vjGnL0X-93" value="学习" style="rhombus;whiteSpace=wrap;html=1;" vertex="1" parent="1">
          <mxGeometry x="470" y="320" width="100" height="60" as="geometry" />
        </mxCell>
        <mxCell id="RdNPgLvdJwb93vjGnL0X-94" value="" style="endArrow=none;html=1;rounded=0;exitX=1;exitY=0;exitDx=0;exitDy=0;entryX=0.25;entryY=1;entryDx=0;entryDy=0;" edge="1" parent="1" source="RdNPgLvdJwb93vjGnL0X-93">
          <mxGeometry width="50" height="50" relative="1" as="geometry">
            <mxPoint x="560" y="330" as="sourcePoint" />
            <mxPoint x="600" y="280" as="targetPoint" />
          </mxGeometry>
        </mxCell>
        <mxCell id="RdNPgLvdJwb93vjGnL0X-95" value="" style="endArrow=none;html=1;rounded=0;entryX=0;entryY=1;entryDx=0;entryDy=0;exitX=0.5;exitY=0;exitDx=0;exitDy=0;" edge="1" parent="1" target="RdNPgLvdJwb93vjGnL0X-93">
          <mxGeometry width="50" height="50" relative="1" as="geometry">
            <mxPoint x="430" y="420" as="sourcePoint" />
            <mxPoint x="560" y="390" as="targetPoint" />
          </mxGeometry>
        </mxCell>
        <mxCell id="RdNPgLvdJwb93vjGnL0X-96" value="m" style="text;html=1;align=center;verticalAlign=middle;resizable=0;points=[];autosize=1;strokeColor=none;fillColor=none;" vertex="1" parent="1">
          <mxGeometry x="545" y="288" width="30" height="30" as="geometry" />
        </mxCell>
        <mxCell id="RdNPgLvdJwb93vjGnL0X-97" value="n" style="text;html=1;align=center;verticalAlign=middle;resizable=0;points=[];autosize=1;strokeColor=none;fillColor=none;" vertex="1" parent="1">
          <mxGeometry x="460" y="390" width="30" height="30" as="geometry" />
        </mxCell>
        <mxCell id="RdNPgLvdJwb93vjGnL0X-100" value="教龄" style="rounded=0;whiteSpace=wrap;html=1;" vertex="1" parent="1">
          <mxGeometry x="341" y="650" width="60" height="40" as="geometry" />
        </mxCell>
        <mxCell id="RdNPgLvdJwb93vjGnL0X-101" value="1" style="rounded=0;whiteSpace=wrap;html=1;" vertex="1" parent="1">
          <mxGeometry x="223.5" y="1120" width="60" height="40" as="geometry" />
        </mxCell>
        <mxCell id="RdNPgLvdJwb93vjGnL0X-102" value="乒乓球" style="rounded=0;whiteSpace=wrap;html=1;" vertex="1" parent="1">
          <mxGeometry x="283.5" y="1120" width="60" height="40" as="geometry" />
        </mxCell>
        <mxCell id="RdNPgLvdJwb93vjGnL0X-103" value="课程" style="text;html=1;align=center;verticalAlign=middle;resizable=0;points=[];autosize=1;strokeColor=none;fillColor=none;" vertex="1" parent="1">
          <mxGeometry x="173.5" y="1125" width="50" height="30" as="geometry" />
        </mxCell>
        <mxCell id="RdNPgLvdJwb93vjGnL0X-109" value="1" style="rounded=0;whiteSpace=wrap;html=1;" vertex="1" parent="1">
          <mxGeometry x="468.5" y="1120" width="60" height="40" as="geometry" />
        </mxCell>
        <mxCell id="RdNPgLvdJwb93vjGnL0X-110" value="乒乓球" style="rounded=0;whiteSpace=wrap;html=1;" vertex="1" parent="1">
          <mxGeometry x="528.5" y="1120" width="60" height="40" as="geometry" />
        </mxCell>
        <mxCell id="RdNPgLvdJwb93vjGnL0X-111" value="课程" style="text;html=1;align=center;verticalAlign=middle;resizable=0;points=[];autosize=1;strokeColor=none;fillColor=none;" vertex="1" parent="1">
          <mxGeometry x="418.5" y="1115" width="50" height="30" as="geometry" />
        </mxCell>
        <mxCell id="RdNPgLvdJwb93vjGnL0X-113" value="2" style="rounded=0;whiteSpace=wrap;html=1;" vertex="1" parent="1">
          <mxGeometry x="478.5" y="1160" width="60" height="40" as="geometry" />
        </mxCell>
        <mxCell id="RdNPgLvdJwb93vjGnL0X-114" value="体能" style="rounded=0;whiteSpace=wrap;html=1;" vertex="1" parent="1">
          <mxGeometry x="538.5" y="1160" width="60" height="40" as="geometry" />
        </mxCell>
        <mxCell id="RdNPgLvdJwb93vjGnL0X-115" value="课程" style="text;html=1;align=center;verticalAlign=middle;resizable=0;points=[];autosize=1;strokeColor=none;fillColor=none;" vertex="1" parent="1">
          <mxGeometry x="428.5" y="1155" width="50" height="30" as="geometry" />
        </mxCell>
        <mxCell id="RdNPgLvdJwb93vjGnL0X-123" style="edgeStyle=orthogonalEdgeStyle;rounded=0;orthogonalLoop=1;jettySize=auto;html=1;exitX=0.5;exitY=1;exitDx=0;exitDy=0;entryX=0.5;entryY=0;entryDx=0;entryDy=0;" edge="1" parent="1" source="RdNPgLvdJwb93vjGnL0X-119" target="RdNPgLvdJwb93vjGnL0X-53">
          <mxGeometry relative="1" as="geometry" />
        </mxCell>
        <mxCell id="RdNPgLvdJwb93vjGnL0X-119" value="ID" style="rounded=0;whiteSpace=wrap;html=1;" vertex="1" parent="1">
          <mxGeometry x="323.5" y="760" width="60" height="40" as="geometry" />
        </mxCell>
        <mxCell id="RdNPgLvdJwb93vjGnL0X-120" value="课程名称" style="rounded=0;whiteSpace=wrap;html=1;" vertex="1" parent="1">
          <mxGeometry x="383.5" y="760" width="60" height="40" as="geometry" />
        </mxCell>
        <mxCell id="RdNPgLvdJwb93vjGnL0X-121" value="课程" style="text;html=1;align=center;verticalAlign=middle;resizable=0;points=[];autosize=1;strokeColor=none;fillColor=none;" vertex="1" parent="1">
          <mxGeometry x="273.5" y="765" width="50" height="30" as="geometry" />
        </mxCell>
        <mxCell id="RdNPgLvdJwb93vjGnL0X-125" value="ID" style="rounded=0;whiteSpace=wrap;html=1;" vertex="1" parent="1">
          <mxGeometry x="298" y="1315" width="39" height="20" as="geometry" />
        </mxCell>
        <mxCell id="RdNPgLvdJwb93vjGnL0X-126" value="名字" style="rounded=0;whiteSpace=wrap;html=1;" vertex="1" parent="1">
          <mxGeometry x="337" y="1315" width="80" height="20" as="geometry" />
        </mxCell>
        <mxCell id="RdNPgLvdJwb93vjGnL0X-127" value="教龄" style="rounded=0;whiteSpace=wrap;html=1;" vertex="1" parent="1">
          <mxGeometry x="417" y="1315" width="80" height="20" as="geometry" />
        </mxCell>
        <mxCell id="RdNPgLvdJwb93vjGnL0X-129" value="ID" style="rounded=0;whiteSpace=wrap;html=1;" vertex="1" parent="1">
          <mxGeometry x="298" y="1395" width="39" height="20" as="geometry" />
        </mxCell>
        <mxCell id="RdNPgLvdJwb93vjGnL0X-130" value="课程ID" style="rounded=0;whiteSpace=wrap;html=1;" vertex="1" parent="1">
          <mxGeometry x="337" y="1395" width="80" height="20" as="geometry" />
        </mxCell>
        <mxCell id="RdNPgLvdJwb93vjGnL0X-131" value="学员ID" style="rounded=0;whiteSpace=wrap;html=1;" vertex="1" parent="1">
          <mxGeometry x="417" y="1395" width="80" height="20" as="geometry" />
        </mxCell>
        <mxCell id="RdNPgLvdJwb93vjGnL0X-132" value="课程名称" style="rounded=0;whiteSpace=wrap;html=1;" vertex="1" parent="1">
          <mxGeometry x="417" y="1355" width="80" height="20" as="geometry" />
        </mxCell>
        <mxCell id="RdNPgLvdJwb93vjGnL0X-133" value="ID" style="rounded=0;whiteSpace=wrap;html=1;" vertex="1" parent="1">
          <mxGeometry x="298" y="1275" width="39" height="20" as="geometry" />
        </mxCell>
        <mxCell id="RdNPgLvdJwb93vjGnL0X-134" value="名字" style="rounded=0;whiteSpace=wrap;html=1;" vertex="1" parent="1">
          <mxGeometry x="337" y="1275" width="80" height="20" as="geometry" />
        </mxCell>
        <mxCell id="RdNPgLvdJwb93vjGnL0X-135" value="学龄" style="rounded=0;whiteSpace=wrap;html=1;" vertex="1" parent="1">
          <mxGeometry x="417" y="1275" width="80" height="20" as="geometry" />
        </mxCell>
        <mxCell id="RdNPgLvdJwb93vjGnL0X-139" value="教练" style="text;html=1;align=center;verticalAlign=middle;resizable=0;points=[];autosize=1;strokeColor=none;fillColor=none;" vertex="1" parent="1">
          <mxGeometry x="248" y="1310" width="50" height="30" as="geometry" />
        </mxCell>
        <mxCell id="RdNPgLvdJwb93vjGnL0X-140" value="学情" style="text;html=1;align=center;verticalAlign=middle;resizable=0;points=[];autosize=1;strokeColor=none;fillColor=none;" vertex="1" parent="1">
          <mxGeometry x="248" y="1390" width="50" height="30" as="geometry" />
        </mxCell>
        <mxCell id="RdNPgLvdJwb93vjGnL0X-141" value="学员" style="text;html=1;align=center;verticalAlign=middle;resizable=0;points=[];autosize=1;strokeColor=none;fillColor=none;" vertex="1" parent="1">
          <mxGeometry x="248" y="1270" width="50" height="30" as="geometry" />
        </mxCell>
        <mxCell id="RdNPgLvdJwb93vjGnL0X-142" value="&lt;b&gt;Fig 4: 关系模型&lt;/b&gt;" style="text;html=1;align=center;verticalAlign=middle;whiteSpace=wrap;rounded=0;" vertex="1" parent="1">
          <mxGeometry x="343.5" y="1420" width="110" height="30" as="geometry" />
        </mxCell>
        <mxCell id="RdNPgLvdJwb93vjGnL0X-143" value="&lt;b&gt;Fig 5: 关系模型实例&lt;/b&gt;" style="text;html=1;align=center;verticalAlign=middle;whiteSpace=wrap;rounded=0;" vertex="1" parent="1">
          <mxGeometry x="340" y="1640" width="110" height="30" as="geometry" />
        </mxCell>
        <mxCell id="RdNPgLvdJwb93vjGnL0X-144" value="ID" style="rounded=0;whiteSpace=wrap;html=1;" vertex="1" parent="1">
          <mxGeometry x="159" y="1540" width="39" height="20" as="geometry" />
        </mxCell>
        <mxCell id="RdNPgLvdJwb93vjGnL0X-145" value="名字" style="rounded=0;whiteSpace=wrap;html=1;" vertex="1" parent="1">
          <mxGeometry x="198" y="1540" width="80" height="20" as="geometry" />
        </mxCell>
        <mxCell id="RdNPgLvdJwb93vjGnL0X-146" value="教龄" style="rounded=0;whiteSpace=wrap;html=1;" vertex="1" parent="1">
          <mxGeometry x="278" y="1540" width="80" height="20" as="geometry" />
        </mxCell>
        <mxCell id="RdNPgLvdJwb93vjGnL0X-147" value="ID" style="rounded=0;whiteSpace=wrap;html=1;" vertex="1" parent="1">
          <mxGeometry x="421" y="1460" width="39" height="20" as="geometry" />
        </mxCell>
        <mxCell id="RdNPgLvdJwb93vjGnL0X-148" value="教练ID" style="rounded=0;whiteSpace=wrap;html=1;" vertex="1" parent="1">
          <mxGeometry x="460" y="1460" width="80" height="20" as="geometry" />
        </mxCell>
        <mxCell id="RdNPgLvdJwb93vjGnL0X-149" value="课程名称" style="rounded=0;whiteSpace=wrap;html=1;" vertex="1" parent="1">
          <mxGeometry x="540" y="1460" width="80" height="20" as="geometry" />
        </mxCell>
        <mxCell id="RdNPgLvdJwb93vjGnL0X-151" value="ID" style="rounded=0;whiteSpace=wrap;html=1;" vertex="1" parent="1">
          <mxGeometry x="159" y="1460" width="39" height="20" as="geometry" />
        </mxCell>
        <mxCell id="RdNPgLvdJwb93vjGnL0X-152" value="名字" style="rounded=0;whiteSpace=wrap;html=1;" vertex="1" parent="1">
          <mxGeometry x="198" y="1460" width="80" height="20" as="geometry" />
        </mxCell>
        <mxCell id="RdNPgLvdJwb93vjGnL0X-153" value="学龄" style="rounded=0;whiteSpace=wrap;html=1;" vertex="1" parent="1">
          <mxGeometry x="278" y="1460" width="80" height="20" as="geometry" />
        </mxCell>
        <mxCell id="RdNPgLvdJwb93vjGnL0X-154" value="教练" style="text;html=1;align=center;verticalAlign=middle;resizable=0;points=[];autosize=1;strokeColor=none;fillColor=none;" vertex="1" parent="1">
          <mxGeometry x="109" y="1535" width="50" height="30" as="geometry" />
        </mxCell>
        <mxCell id="RdNPgLvdJwb93vjGnL0X-155" value="课程" style="text;html=1;align=center;verticalAlign=middle;resizable=0;points=[];autosize=1;strokeColor=none;fillColor=none;" vertex="1" parent="1">
          <mxGeometry x="371" y="1455" width="50" height="30" as="geometry" />
        </mxCell>
        <mxCell id="RdNPgLvdJwb93vjGnL0X-156" value="学员" style="text;html=1;align=center;verticalAlign=middle;resizable=0;points=[];autosize=1;strokeColor=none;fillColor=none;" vertex="1" parent="1">
          <mxGeometry x="109" y="1455" width="50" height="30" as="geometry" />
        </mxCell>
        <mxCell id="RdNPgLvdJwb93vjGnL0X-157" value="1" style="rounded=0;whiteSpace=wrap;html=1;" vertex="1" parent="1">
          <mxGeometry x="159" y="1480" width="39" height="20" as="geometry" />
        </mxCell>
        <mxCell id="RdNPgLvdJwb93vjGnL0X-158" value="苏俊杰" style="rounded=0;whiteSpace=wrap;html=1;" vertex="1" parent="1">
          <mxGeometry x="198" y="1480" width="80" height="20" as="geometry" />
        </mxCell>
        <mxCell id="RdNPgLvdJwb93vjGnL0X-159" value="1" style="rounded=0;whiteSpace=wrap;html=1;" vertex="1" parent="1">
          <mxGeometry x="278" y="1480" width="80" height="20" as="geometry" />
        </mxCell>
        <mxCell id="RdNPgLvdJwb93vjGnL0X-160" value="2" style="rounded=0;whiteSpace=wrap;html=1;" vertex="1" parent="1">
          <mxGeometry x="159" y="1500" width="39" height="20" as="geometry" />
        </mxCell>
        <mxCell id="RdNPgLvdJwb93vjGnL0X-161" value="冯梓哲" style="rounded=0;whiteSpace=wrap;html=1;" vertex="1" parent="1">
          <mxGeometry x="198" y="1500" width="80" height="20" as="geometry" />
        </mxCell>
        <mxCell id="RdNPgLvdJwb93vjGnL0X-162" value="2" style="rounded=0;whiteSpace=wrap;html=1;" vertex="1" parent="1">
          <mxGeometry x="278" y="1500" width="80" height="20" as="geometry" />
        </mxCell>
        <mxCell id="RdNPgLvdJwb93vjGnL0X-163" value="1" style="rounded=0;whiteSpace=wrap;html=1;" vertex="1" parent="1">
          <mxGeometry x="159" y="1560" width="39" height="20" as="geometry" />
        </mxCell>
        <mxCell id="RdNPgLvdJwb93vjGnL0X-164" value="Lord Dark" style="rounded=0;whiteSpace=wrap;html=1;" vertex="1" parent="1">
          <mxGeometry x="198" y="1560" width="80" height="20" as="geometry" />
        </mxCell>
        <mxCell id="RdNPgLvdJwb93vjGnL0X-165" value="66" style="rounded=0;whiteSpace=wrap;html=1;" vertex="1" parent="1">
          <mxGeometry x="278" y="1560" width="80" height="20" as="geometry" />
        </mxCell>
        <mxCell id="RdNPgLvdJwb93vjGnL0X-166" value="2" style="rounded=0;whiteSpace=wrap;html=1;" vertex="1" parent="1">
          <mxGeometry x="159" y="1580" width="39" height="20" as="geometry" />
        </mxCell>
        <mxCell id="RdNPgLvdJwb93vjGnL0X-167" value="乔指导" style="rounded=0;whiteSpace=wrap;html=1;" vertex="1" parent="1">
          <mxGeometry x="198" y="1580" width="80" height="20" as="geometry" />
        </mxCell>
        <mxCell id="RdNPgLvdJwb93vjGnL0X-168" value="10" style="rounded=0;whiteSpace=wrap;html=1;" vertex="1" parent="1">
          <mxGeometry x="278" y="1580" width="80" height="20" as="geometry" />
        </mxCell>
        <mxCell id="RdNPgLvdJwb93vjGnL0X-169" value="1" style="rounded=0;whiteSpace=wrap;html=1;" vertex="1" parent="1">
          <mxGeometry x="421" y="1480" width="39" height="20" as="geometry" />
        </mxCell>
        <mxCell id="RdNPgLvdJwb93vjGnL0X-170" value="1" style="rounded=0;whiteSpace=wrap;html=1;" vertex="1" parent="1">
          <mxGeometry x="460" y="1480" width="80" height="20" as="geometry" />
        </mxCell>
        <mxCell id="RdNPgLvdJwb93vjGnL0X-171" value="体能" style="rounded=0;whiteSpace=wrap;html=1;" vertex="1" parent="1">
          <mxGeometry x="540" y="1480" width="80" height="20" as="geometry" />
        </mxCell>
        <mxCell id="RdNPgLvdJwb93vjGnL0X-173" value="2" style="rounded=0;whiteSpace=wrap;html=1;" vertex="1" parent="1">
          <mxGeometry x="421" y="1500" width="39" height="20" as="geometry" />
        </mxCell>
        <mxCell id="RdNPgLvdJwb93vjGnL0X-174" value="2" style="rounded=0;whiteSpace=wrap;html=1;" vertex="1" parent="1">
          <mxGeometry x="460" y="1500" width="80" height="20" as="geometry" />
        </mxCell>
        <mxCell id="RdNPgLvdJwb93vjGnL0X-175" value="乒乓球" style="rounded=0;whiteSpace=wrap;html=1;" vertex="1" parent="1">
          <mxGeometry x="540" y="1500" width="80" height="20" as="geometry" />
        </mxCell>
        <mxCell id="RdNPgLvdJwb93vjGnL0X-181" value="ID" style="rounded=0;whiteSpace=wrap;html=1;" vertex="1" parent="1">
          <mxGeometry x="298" y="1355" width="39" height="20" as="geometry" />
        </mxCell>
        <mxCell id="RdNPgLvdJwb93vjGnL0X-182" value="教练ID" style="rounded=0;whiteSpace=wrap;html=1;" vertex="1" parent="1">
          <mxGeometry x="337" y="1355" width="80" height="20" as="geometry" />
        </mxCell>
        <mxCell id="RdNPgLvdJwb93vjGnL0X-183" value="课程" style="text;html=1;align=center;verticalAlign=middle;resizable=0;points=[];autosize=1;strokeColor=none;fillColor=none;" vertex="1" parent="1">
          <mxGeometry x="248" y="1350" width="50" height="30" as="geometry" />
        </mxCell>
        <mxCell id="RdNPgLvdJwb93vjGnL0X-184" value="ID" style="rounded=0;whiteSpace=wrap;html=1;" vertex="1" parent="1">
          <mxGeometry x="420" y="1540" width="39" height="20" as="geometry" />
        </mxCell>
        <mxCell id="RdNPgLvdJwb93vjGnL0X-185" value="课程ID" style="rounded=0;whiteSpace=wrap;html=1;" vertex="1" parent="1">
          <mxGeometry x="459" y="1540" width="80" height="20" as="geometry" />
        </mxCell>
        <mxCell id="RdNPgLvdJwb93vjGnL0X-186" value="学员ID" style="rounded=0;whiteSpace=wrap;html=1;" vertex="1" parent="1">
          <mxGeometry x="539" y="1540" width="80" height="20" as="geometry" />
        </mxCell>
        <mxCell id="RdNPgLvdJwb93vjGnL0X-187" value="学情" style="text;html=1;align=center;verticalAlign=middle;resizable=0;points=[];autosize=1;strokeColor=none;fillColor=none;" vertex="1" parent="1">
          <mxGeometry x="370" y="1535" width="50" height="30" as="geometry" />
        </mxCell>
        <mxCell id="RdNPgLvdJwb93vjGnL0X-188" value="1" style="rounded=0;whiteSpace=wrap;html=1;" vertex="1" parent="1">
          <mxGeometry x="420" y="1560" width="39" height="20" as="geometry" />
        </mxCell>
        <mxCell id="RdNPgLvdJwb93vjGnL0X-189" value="1" style="rounded=0;whiteSpace=wrap;html=1;" vertex="1" parent="1">
          <mxGeometry x="459" y="1560" width="80" height="20" as="geometry" />
        </mxCell>
        <mxCell id="RdNPgLvdJwb93vjGnL0X-190" value="1" style="rounded=0;whiteSpace=wrap;html=1;" vertex="1" parent="1">
          <mxGeometry x="539" y="1560" width="80" height="20" as="geometry" />
        </mxCell>
        <mxCell id="RdNPgLvdJwb93vjGnL0X-191" value="2" style="rounded=0;whiteSpace=wrap;html=1;" vertex="1" parent="1">
          <mxGeometry x="420" y="1580" width="39" height="20" as="geometry" />
        </mxCell>
        <mxCell id="RdNPgLvdJwb93vjGnL0X-192" value="2" style="rounded=0;whiteSpace=wrap;html=1;" vertex="1" parent="1">
          <mxGeometry x="459" y="1580" width="80" height="20" as="geometry" />
        </mxCell>
        <mxCell id="RdNPgLvdJwb93vjGnL0X-193" value="1" style="rounded=0;whiteSpace=wrap;html=1;" vertex="1" parent="1">
          <mxGeometry x="539" y="1580" width="80" height="20" as="geometry" />
        </mxCell>
        <mxCell id="RdNPgLvdJwb93vjGnL0X-194" value="3" style="rounded=0;whiteSpace=wrap;html=1;" vertex="1" parent="1">
          <mxGeometry x="420" y="1600" width="39" height="20" as="geometry" />
        </mxCell>
        <mxCell id="RdNPgLvdJwb93vjGnL0X-195" value="1" style="rounded=0;whiteSpace=wrap;html=1;" vertex="1" parent="1">
          <mxGeometry x="459" y="1600" width="80" height="20" as="geometry" />
        </mxCell>
        <mxCell id="RdNPgLvdJwb93vjGnL0X-196" value="2" style="rounded=0;whiteSpace=wrap;html=1;" vertex="1" parent="1">
          <mxGeometry x="539" y="1600" width="80" height="20" as="geometry" />
        </mxCell>
        <mxCell id="RdNPgLvdJwb93vjGnL0X-198" value="2" style="rounded=0;whiteSpace=wrap;html=1;" vertex="1" parent="1">
          <mxGeometry x="140" y="1180" width="60" height="40" as="geometry" />
        </mxCell>
        <mxCell id="RdNPgLvdJwb93vjGnL0X-199" value="体能" style="rounded=0;whiteSpace=wrap;html=1;" vertex="1" parent="1">
          <mxGeometry x="200" y="1180" width="60" height="40" as="geometry" />
        </mxCell>
        <mxCell id="RdNPgLvdJwb93vjGnL0X-200" value="课程" style="text;html=1;align=center;verticalAlign=middle;resizable=0;points=[];autosize=1;strokeColor=none;fillColor=none;" vertex="1" parent="1">
          <mxGeometry x="90" y="1185" width="50" height="30" as="geometry" />
        </mxCell>
      </root>
    </mxGraphModel>
  </diagram>
</mxfile>
